<?xml version="1.0" encoding="us-ascii" standalone="no"?><svg xmlns="http://www.w3.org/2000/svg" xmlns:xlink="http://www.w3.org/1999/xlink" contentStyleType="text/css" height="959px" preserveAspectRatio="none" style="width:1129px;height:959px;background:#FFFFFF;" version="1.1" viewBox="0 0 1129 959" width="1129px" zoomAndPan="magnify"><defs/><g><rect fill="none" height="111.6641" style="stroke:#000000;stroke-width:1.5;" width="610" x="182" y="69.5938"/><rect fill="none" height="248.1953" style="stroke:#000000;stroke-width:1.5;" width="637" x="486" y="195.2578"/><rect fill="none" height="433.5938" style="stroke:#000000;stroke-width:1.5;" width="1051" x="10" y="457.4531"/><line style="stroke:#181818;stroke-width:0.5;stroke-dasharray:5.0,5.0;" x1="246" x2="246" y1="52.5938" y2="908.0469"/><line style="stroke:#181818;stroke-width:0.5;stroke-dasharray:5.0,5.0;" x1="394.5" x2="394.5" y1="52.5938" y2="908.0469"/><line style="stroke:#181818;stroke-width:0.5;stroke-dasharray:5.0,5.0;" x1="558" x2="558" y1="52.5938" y2="908.0469"/><line style="stroke:#181818;stroke-width:0.5;stroke-dasharray:5.0,5.0;" x1="700" x2="700" y1="52.5938" y2="908.0469"/><line style="stroke:#181818;stroke-width:0.5;stroke-dasharray:5.0,5.0;" x1="865.5" x2="865.5" y1="52.5938" y2="908.0469"/><rect fill="#E2E2F0" height="30.2969" rx="2.5" ry="2.5" style="stroke:#181818;stroke-width:0.5;" width="108" x="192" y="21.2969"/><text fill="#000000" font-family="sans-serif" font-size="14" lengthAdjust="spacing" textLength="94" x="199" y="41.292">MQTT Broker</text><rect fill="#E2E2F0" height="30.2969" rx="2.5" ry="2.5" style="stroke:#181818;stroke-width:0.5;" width="108" x="192" y="907.0469"/><text fill="#000000" font-family="sans-serif" font-size="14" lengthAdjust="spacing" textLength="94" x="199" y="927.042">MQTT Broker</text><rect fill="#E2E2F0" height="46.5938" rx="2.5" ry="2.5" style="stroke:#181818;stroke-width:0.5;" width="103" x="343.5" y="5"/><text fill="#000000" font-family="sans-serif" font-size="14" lengthAdjust="spacing" textLength="89" x="350.5" y="24.9951">COAP2MQTT</text><text fill="#000000" font-family="sans-serif" font-size="14" lengthAdjust="spacing" textLength="62" x="364" y="41.292">Gateway</text><rect fill="#E2E2F0" height="46.5938" rx="2.5" ry="2.5" style="stroke:#181818;stroke-width:0.5;" width="103" x="343.5" y="907.0469"/><text fill="#000000" font-family="sans-serif" font-size="14" lengthAdjust="spacing" textLength="89" x="350.5" y="927.042">COAP2MQTT</text><text fill="#000000" font-family="sans-serif" font-size="14" lengthAdjust="spacing" textLength="62" x="364" y="943.3389">Gateway</text><rect fill="#E2E2F0" height="30.2969" rx="2.5" ry="2.5" style="stroke:#181818;stroke-width:0.5;" width="124" x="496" y="21.2969"/><text fill="#000000" font-family="sans-serif" font-size="14" lengthAdjust="spacing" textLength="110" x="503" y="41.292">mDNS Resolver</text><rect fill="#E2E2F0" height="30.2969" rx="2.5" ry="2.5" style="stroke:#181818;stroke-width:0.5;" width="124" x="496" y="907.0469"/><text fill="#000000" font-family="sans-serif" font-size="14" lengthAdjust="spacing" textLength="110" x="503" y="927.042">mDNS Resolver</text><rect fill="#E2E2F0" height="30.2969" rx="2.5" ry="2.5" style="stroke:#181818;stroke-width:0.5;" width="140" x="630" y="21.2969"/><text fill="#000000" font-family="sans-serif" font-size="14" lengthAdjust="spacing" textLength="126" x="637" y="41.292">OT Border Router</text><rect fill="#E2E2F0" height="30.2969" rx="2.5" ry="2.5" style="stroke:#181818;stroke-width:0.5;" width="140" x="630" y="907.0469"/><text fill="#000000" font-family="sans-serif" font-size="14" lengthAdjust="spacing" textLength="126" x="637" y="927.042">OT Border Router</text><rect fill="#E2E2F0" height="30.2969" rx="2.5" ry="2.5" style="stroke:#181818;stroke-width:0.5;" width="127" x="802.5" y="21.2969"/><text fill="#000000" font-family="sans-serif" font-size="14" lengthAdjust="spacing" textLength="113" x="809.5" y="41.292">OT Child Sensor</text><rect fill="#E2E2F0" height="30.2969" rx="2.5" ry="2.5" style="stroke:#181818;stroke-width:0.5;" width="127" x="802.5" y="907.0469"/><text fill="#000000" font-family="sans-serif" font-size="14" lengthAdjust="spacing" textLength="113" x="809.5" y="927.042">OT Child Sensor</text><path d="M182,69.5938 L463,69.5938 L463,76.7266 L453,86.7266 L182,86.7266 L182,69.5938 " fill="#EEEEEE" style="stroke:#000000;stroke-width:1.5;"/><rect fill="none" height="111.6641" style="stroke:#000000;stroke-width:1.5;" width="610" x="182" y="69.5938"/><text fill="#000000" font-family="sans-serif" font-size="13" font-weight="bold" lengthAdjust="spacing" textLength="236" x="197" y="82.6606">Initialize COAP2MQTT Gateway</text><polygon fill="#181818" points="257,103.8594,247,107.8594,257,111.8594,253,107.8594" style="stroke:#181818;stroke-width:1.0;"/><line style="stroke:#181818;stroke-width:1.0;" x1="251" x2="394" y1="107.8594" y2="107.8594"/><text fill="#000000" font-family="sans-serif" font-size="13" lengthAdjust="spacing" textLength="113" x="263" y="102.7935">connect to broker</text><polygon fill="#181818" points="546,151.125,556,155.125,546,159.125,550,155.125" style="stroke:#181818;stroke-width:1.0;"/><line style="stroke:#181818;stroke-width:1.0;" x1="395" x2="552" y1="155.125" y2="155.125"/><text fill="#000000" font-family="sans-serif" font-size="13" lengthAdjust="spacing" textLength="139" x="402" y="150.0591">register COAP service</text><path d="M563,120.8594 L563,175.8594 L777,175.8594 L777,130.8594 L767,120.8594 L563,120.8594 " fill="#FEFFDD" style="stroke:#181818;stroke-width:0.5;"/><path d="M767,120.8594 L767,130.8594 L777,130.8594 L767,120.8594 " fill="#FEFFDD" style="stroke:#181818;stroke-width:0.5;"/><text fill="#000000" font-family="sans-serif" font-size="13" lengthAdjust="spacing" textLength="159" x="569" y="137.9263">serviceLabel: coap2mqtt</text><text fill="#000000" font-family="sans-serif" font-size="13" lengthAdjust="spacing" textLength="170" x="569" y="153.0591">serviceName: _coap._udp.</text><text fill="#000000" font-family="sans-serif" font-size="13" lengthAdjust="spacing" textLength="193" x="569" y="168.1919">serviceHost: sensordata.local.</text><path d="M486,195.2578 L746,195.2578 L746,202.3906 L736,212.3906 L486,212.3906 L486,195.2578 " fill="#EEEEEE" style="stroke:#000000;stroke-width:1.5;"/><rect fill="none" height="248.1953" style="stroke:#000000;stroke-width:1.5;" width="637" x="486" y="195.2578"/><text fill="#000000" font-family="sans-serif" font-size="13" font-weight="bold" lengthAdjust="spacing" textLength="215" x="501" y="208.3247">Initialize Openthread Sensor</text><line style="stroke:#181818;stroke-width:1.0;" x1="866" x2="908" y1="233.5234" y2="233.5234"/><line style="stroke:#181818;stroke-width:1.0;" x1="908" x2="908" y1="233.5234" y2="246.5234"/><line style="stroke:#181818;stroke-width:1.0;" x1="867" x2="908" y1="246.5234" y2="246.5234"/><polygon fill="#181818" points="877,242.5234,867,246.5234,877,250.5234,873,246.5234" style="stroke:#181818;stroke-width:1.0;"/><text fill="#000000" font-family="sans-serif" font-size="13" lengthAdjust="spacing" textLength="236" x="873" y="228.4575">set SensorID to EUI64 (MAC Address)</text><line style="stroke:#181818;stroke-width:1.0;" x1="866" x2="908" y1="290.7891" y2="290.7891"/><line style="stroke:#181818;stroke-width:1.0;" x1="908" x2="908" y1="290.7891" y2="303.7891"/><line style="stroke:#181818;stroke-width:1.0;" x1="867" x2="908" y1="303.7891" y2="303.7891"/><polygon fill="#181818" points="877,299.7891,867,303.7891,877,307.7891,873,303.7891" style="stroke:#181818;stroke-width:1.0;"/><text fill="#000000" font-family="sans-serif" font-size="13" lengthAdjust="spacing" textLength="238" x="873" y="270.5903">configure DNS resolver to mesh-local</text><text fill="#000000" font-family="sans-serif" font-size="13" lengthAdjust="spacing" textLength="162" x="873" y="285.7231">multicast address ff03::1</text><polygon fill="#181818" points="711,344.0547,701,348.0547,711,352.0547,707,348.0547" style="stroke:#181818;stroke-width:1.0;"/><line style="stroke:#181818;stroke-width:1.0;" x1="705" x2="865" y1="348.0547" y2="348.0547"/><text fill="#000000" font-family="sans-serif" font-size="13" lengthAdjust="spacing" textLength="116" x="717" y="327.856">resolve hostname</text><text fill="#000000" font-family="sans-serif" font-size="13" lengthAdjust="spacing" textLength="142" x="717" y="342.9888">for coap2mqtt service</text><polygon fill="#181818" points="569,373.1875,559,377.1875,569,381.1875,565,377.1875" style="stroke:#181818;stroke-width:1.0;"/><line style="stroke:#181818;stroke-width:1.0;" x1="563" x2="699" y1="377.1875" y2="377.1875"/><text fill="#000000" font-family="sans-serif" font-size="13" lengthAdjust="spacing" textLength="47" x="575" y="372.1216">resolve</text><polygon fill="#181818" points="688,402.3203,698,406.3203,688,410.3203,692,406.3203" style="stroke:#181818;stroke-width:1.0;"/><line style="stroke:#181818;stroke-width:1.0;" x1="558" x2="694" y1="406.3203" y2="406.3203"/><text fill="#000000" font-family="sans-serif" font-size="13" lengthAdjust="spacing" textLength="59" x="565" y="401.2544">response</text><polygon fill="#181818" points="854,431.4531,864,435.4531,854,439.4531,858,435.4531" style="stroke:#181818;stroke-width:1.0;"/><line style="stroke:#181818;stroke-width:1.0;" x1="700" x2="860" y1="435.4531" y2="435.4531"/><text fill="#000000" font-family="sans-serif" font-size="13" lengthAdjust="spacing" textLength="59" x="707" y="430.3872">response</text><path d="M10,457.4531 L203,457.4531 L203,464.5859 L193,474.5859 L10,474.5859 L10,457.4531 " fill="#EEEEEE" style="stroke:#000000;stroke-width:1.5;"/><rect fill="none" height="433.5938" style="stroke:#000000;stroke-width:1.5;" width="1051" x="10" y="457.4531"/><text fill="#000000" font-family="sans-serif" font-size="13" font-weight="bold" lengthAdjust="spacing" textLength="148" x="25" y="470.52">Measurement Cycle</text><line style="stroke:#181818;stroke-width:1.0;" x1="866" x2="908" y1="495.7188" y2="495.7188"/><line style="stroke:#181818;stroke-width:1.0;" x1="908" x2="908" y1="495.7188" y2="508.7188"/><line style="stroke:#181818;stroke-width:1.0;" x1="867" x2="908" y1="508.7188" y2="508.7188"/><polygon fill="#181818" points="877,504.7188,867,508.7188,877,512.7188,873,508.7188" style="stroke:#181818;stroke-width:1.0;"/><text fill="#000000" font-family="sans-serif" font-size="13" lengthAdjust="spacing" textLength="97" x="873" y="490.6528">deep sleep 60s</text><line style="stroke:#181818;stroke-width:1.0;" x1="866" x2="908" y1="537.8516" y2="537.8516"/><line style="stroke:#181818;stroke-width:1.0;" x1="908" x2="908" y1="537.8516" y2="550.8516"/><line style="stroke:#181818;stroke-width:1.0;" x1="867" x2="908" y1="550.8516" y2="550.8516"/><polygon fill="#181818" points="877,546.8516,867,550.8516,877,554.8516,873,550.8516" style="stroke:#181818;stroke-width:1.0;"/><text fill="#000000" font-family="sans-serif" font-size="13" lengthAdjust="spacing" textLength="157" x="873" y="532.7856">power up i2c and sensor</text><line style="stroke:#181818;stroke-width:1.0;" x1="866" x2="908" y1="579.9844" y2="579.9844"/><line style="stroke:#181818;stroke-width:1.0;" x1="908" x2="908" y1="579.9844" y2="592.9844"/><line style="stroke:#181818;stroke-width:1.0;" x1="867" x2="908" y1="592.9844" y2="592.9844"/><polygon fill="#181818" points="877,588.9844,867,592.9844,877,596.9844,873,592.9844" style="stroke:#181818;stroke-width:1.0;"/><text fill="#000000" font-family="sans-serif" font-size="13" lengthAdjust="spacing" textLength="123" x="873" y="574.9185">take measurement</text><line style="stroke:#181818;stroke-width:1.0;" x1="866" x2="908" y1="622.1172" y2="622.1172"/><line style="stroke:#181818;stroke-width:1.0;" x1="908" x2="908" y1="622.1172" y2="635.1172"/><line style="stroke:#181818;stroke-width:1.0;" x1="867" x2="908" y1="635.1172" y2="635.1172"/><polygon fill="#181818" points="877,631.1172,867,635.1172,877,639.1172,873,635.1172" style="stroke:#181818;stroke-width:1.0;"/><text fill="#000000" font-family="sans-serif" font-size="13" lengthAdjust="spacing" textLength="176" x="873" y="617.0513">power down i2c and sensor</text><line style="stroke:#181818;stroke-width:1.0;" x1="866" x2="908" y1="664.25" y2="664.25"/><line style="stroke:#181818;stroke-width:1.0;" x1="908" x2="908" y1="664.25" y2="677.25"/><line style="stroke:#181818;stroke-width:1.0;" x1="867" x2="908" y1="677.25" y2="677.25"/><polygon fill="#181818" points="877,673.25,867,677.25,877,681.25,873,677.25" style="stroke:#181818;stroke-width:1.0;"/><text fill="#000000" font-family="sans-serif" font-size="13" lengthAdjust="spacing" textLength="92" x="873" y="659.1841">power up ADC</text><line style="stroke:#181818;stroke-width:1.0;" x1="866" x2="908" y1="706.3828" y2="706.3828"/><line style="stroke:#181818;stroke-width:1.0;" x1="908" x2="908" y1="706.3828" y2="719.3828"/><line style="stroke:#181818;stroke-width:1.0;" x1="867" x2="908" y1="719.3828" y2="719.3828"/><polygon fill="#181818" points="877,715.3828,867,719.3828,877,723.3828,873,719.3828" style="stroke:#181818;stroke-width:1.0;"/><text fill="#000000" font-family="sans-serif" font-size="13" lengthAdjust="spacing" textLength="123" x="873" y="701.3169">take measurement</text><line style="stroke:#181818;stroke-width:1.0;" x1="866" x2="908" y1="748.5156" y2="748.5156"/><line style="stroke:#181818;stroke-width:1.0;" x1="908" x2="908" y1="748.5156" y2="761.5156"/><line style="stroke:#181818;stroke-width:1.0;" x1="867" x2="908" y1="761.5156" y2="761.5156"/><polygon fill="#181818" points="877,757.5156,867,761.5156,877,765.5156,873,761.5156" style="stroke:#181818;stroke-width:1.0;"/><text fill="#000000" font-family="sans-serif" font-size="13" lengthAdjust="spacing" textLength="111" x="873" y="743.4497">power down ADC</text><polygon fill="#181818" points="406,786.6484,396,790.6484,406,794.6484,402,790.6484" style="stroke:#181818;stroke-width:1.0;"/><line style="stroke:#181818;stroke-width:1.0;" x1="400" x2="865" y1="790.6484" y2="790.6484"/><text fill="#000000" font-family="sans-serif" font-size="13" lengthAdjust="spacing" textLength="159" x="412" y="785.5825">PUT sensor data as JSON</text><line style="stroke:#181818;stroke-width:1.0;" x1="395" x2="437" y1="819.7813" y2="819.7813"/><line style="stroke:#181818;stroke-width:1.0;" x1="437" x2="437" y1="819.7813" y2="832.7813"/><line style="stroke:#181818;stroke-width:1.0;" x1="396" x2="437" y1="832.7813" y2="832.7813"/><polygon fill="#181818" points="406,828.7813,396,832.7813,406,836.7813,402,832.7813" style="stroke:#181818;stroke-width:1.0;"/><text fill="#000000" font-family="sans-serif" font-size="13" lengthAdjust="spacing" textLength="126" x="402" y="814.7153">parse JSON payload</text><polygon fill="#181818" points="257,868.4805,247,872.4805,257,876.4805,253,872.4805" style="stroke:#181818;stroke-width:1.0;"/><line style="stroke:#181818;stroke-width:1.0;" x1="251" x2="394" y1="872.4805" y2="872.4805"/><text fill="#000000" font-family="sans-serif" font-size="13" lengthAdjust="spacing" textLength="125" x="263" y="867.4146">publish sensor data</text><path d="M20,845.7813 L20,885.7813 L241,885.7813 L241,855.7813 L231,845.7813 L20,845.7813 " fill="#FEFFDD" style="stroke:#181818;stroke-width:0.5;"/><path d="M231,845.7813 L231,855.7813 L241,855.7813 L231,845.7813 " fill="#FEFFDD" style="stroke:#181818;stroke-width:0.5;"/><text fill="#000000" font-family="sans-serif" font-size="13" lengthAdjust="spacing" textLength="138" x="26" y="862.8481">topic for each metric:</text><text fill="#000000" font-family="sans-serif" font-size="13" lengthAdjust="spacing" textLength="200" x="26" y="877.981">openthread/[SensorID]/[metric]</text><!--SRC=[dLDDRzim3BtxLn0zTOUcNJRquCE0p1cs34lIDUcfAGf5ecEXigH9SeFiruzI7DT9YnrwyOVu-FWUILdcWkJICXtWRFfxkOIlpZoXEmFceVuJGcRxY68-kXb6s4f_Pm6tR9U0t31x3Ap7imNSeZVg-K169yUOEHKpJg23MzE45cR2shs25PLK0XQelTcZF8eispZJM9Xe6IHJyYz2fmvQSHaaQN3n9Nd9wKzhv062WNNosKUGm1mSRgGdCOcCwhXdoP5GsWG49pSLiRIdlzWQLPxoXv5-fTl0ZDMOmsCC31uROGTTv8VnAJyQ4IomWJASgK66-Yq_SuiwL0xPmJlf8ETHBBqYJsW3at6qzErkSlqPpgUZ0aP2EFJ-mqa6-I_bfd48SJwkdK_ChT5N5qdDIjUDelOp7u3jQQ0ihpxb-SSNjZYc_4005TdIP7gbI-DU6j9hNyJtcvpow3pjIP_F6kfLBo79xivxVPeYysIafXP1iUCAJwmAH0jUnUVrbJy9MhCbsyGYXnoO5kr8Jb21FI4rfglp9eamM_r_cgxOQ5oyky9HRknm3ZTtoxOWn5sAz-BdOZxhhVGUHxV9OmhHvquP9bxT2zkibVHLd-wmymhBA0jeIQpa40UCZ5UaEZZ9SqWnqstgvVrX8nykx_UO1uBGu19TdE0_]--></g></svg>